<svg width="12" height="20" viewBox="0 0 12 20" fill="none" xmlns="http://www.w3.org/2000/svg">
<path fill-rule="evenodd" clip-rule="evenodd" d="M11.0311 19.531C10.9615 19.6008 10.8787 19.6563 10.7876 19.6941C10.6965 19.7319 10.5988 19.7513 10.5001 19.7513C10.4015 19.7513 10.3038 19.7319 10.2127 19.6941C10.1216 19.6563 10.0388 19.6008 9.96912 19.531L0.969125 10.531C0.899279 10.4613 0.843865 10.3786 0.806056 10.2875C0.768247 10.1963 0.748784 10.0987 0.748784 10C0.748784 9.90135 0.768247 9.80367 0.806056 9.71255C0.843865 9.62143 0.89928 9.53867 0.969125 9.469L9.96913 0.469002C10.11 0.328173 10.301 0.249056 10.5001 0.249056C10.6993 0.249056 10.8903 0.328173 11.0311 0.469002C11.172 0.609833 11.2511 0.800838 11.2511 1C11.2511 1.19917 11.172 1.39017 11.0311 1.531L2.56062 10L11.0311 18.469C11.101 18.5387 11.1564 18.6214 11.1942 18.7126C11.232 18.8037 11.2515 18.9014 11.2515 19C11.2515 19.0987 11.232 19.1963 11.1942 19.2875C11.1564 19.3786 11.101 19.4613 11.0311 19.531Z" fill="black"/>
</svg>
